<mxfile host="app.diagrams.net" agent="Mozilla/5.0 (Macintosh; Intel Mac OS X 10_15_7) AppleWebKit/537.36 (KHTML, like Gecko) Chrome/133.0.0.0 Safari/537.36" version="26.1.0">
  <diagram name="第 1 页" id="ckXLb1tCdCVSXDYiM965">
    <mxGraphModel dx="1194" dy="649" grid="1" gridSize="10" guides="1" tooltips="1" connect="1" arrows="1" fold="1" page="1" pageScale="1" pageWidth="827" pageHeight="1169" math="0" shadow="0">
      <root>
        <mxCell id="0" />
        <mxCell id="1" parent="0" />
        <mxCell id="LiR2XcLl-FLcW5bncXfx-14" value="DOP/接口平台" style="rounded=0;whiteSpace=wrap;html=1;" vertex="1" parent="1">
          <mxGeometry x="340" y="210" width="280" height="70" as="geometry" />
        </mxCell>
        <mxCell id="LiR2XcLl-FLcW5bncXfx-33" value="消息中心" style="ellipse;whiteSpace=wrap;html=1;" vertex="1" parent="1">
          <mxGeometry x="427" y="540" width="106" height="70" as="geometry" />
        </mxCell>
        <mxCell id="LiR2XcLl-FLcW5bncXfx-34" value="" style="group" vertex="1" connectable="0" parent="1">
          <mxGeometry x="20" y="360" width="920" height="70" as="geometry" />
        </mxCell>
        <mxCell id="LiR2XcLl-FLcW5bncXfx-15" value="" style="rounded=0;whiteSpace=wrap;html=1;" vertex="1" parent="LiR2XcLl-FLcW5bncXfx-34">
          <mxGeometry width="920" height="70" as="geometry" />
        </mxCell>
        <mxCell id="LiR2XcLl-FLcW5bncXfx-16" value="OMS" style="ellipse;whiteSpace=wrap;html=1;" vertex="1" parent="LiR2XcLl-FLcW5bncXfx-34">
          <mxGeometry x="30" y="5" width="100" height="60" as="geometry" />
        </mxCell>
        <mxCell id="LiR2XcLl-FLcW5bncXfx-17" value="WMS" style="ellipse;whiteSpace=wrap;html=1;" vertex="1" parent="LiR2XcLl-FLcW5bncXfx-34">
          <mxGeometry x="200" y="5" width="100" height="60" as="geometry" />
        </mxCell>
        <mxCell id="LiR2XcLl-FLcW5bncXfx-18" value="TMS" style="ellipse;whiteSpace=wrap;html=1;" vertex="1" parent="LiR2XcLl-FLcW5bncXfx-34">
          <mxGeometry x="370" y="5" width="100" height="60" as="geometry" />
        </mxCell>
        <mxCell id="LiR2XcLl-FLcW5bncXfx-19" value="BMS" style="ellipse;whiteSpace=wrap;html=1;" vertex="1" parent="LiR2XcLl-FLcW5bncXfx-34">
          <mxGeometry x="540" y="5" width="100" height="60" as="geometry" />
        </mxCell>
        <mxCell id="LiR2XcLl-FLcW5bncXfx-20" value="LMS" style="ellipse;whiteSpace=wrap;html=1;" vertex="1" parent="LiR2XcLl-FLcW5bncXfx-34">
          <mxGeometry x="710" y="5" width="100" height="60" as="geometry" />
        </mxCell>
        <mxCell id="LiR2XcLl-FLcW5bncXfx-21" value="供应链系统" style="text;html=1;align=center;verticalAlign=middle;whiteSpace=wrap;rounded=0;" vertex="1" parent="LiR2XcLl-FLcW5bncXfx-34">
          <mxGeometry x="830" y="20" width="80" height="30" as="geometry" />
        </mxCell>
        <mxCell id="LiR2XcLl-FLcW5bncXfx-25" value="" style="endArrow=classic;startArrow=classic;html=1;rounded=0;" edge="1" parent="LiR2XcLl-FLcW5bncXfx-34">
          <mxGeometry width="50" height="50" relative="1" as="geometry">
            <mxPoint x="130" y="34.5" as="sourcePoint" />
            <mxPoint x="200" y="34.5" as="targetPoint" />
          </mxGeometry>
        </mxCell>
        <mxCell id="LiR2XcLl-FLcW5bncXfx-26" value="Feign" style="edgeLabel;html=1;align=center;verticalAlign=middle;resizable=0;points=[];" vertex="1" connectable="0" parent="LiR2XcLl-FLcW5bncXfx-25">
          <mxGeometry y="1" relative="1" as="geometry">
            <mxPoint as="offset" />
          </mxGeometry>
        </mxCell>
        <mxCell id="LiR2XcLl-FLcW5bncXfx-27" value="" style="endArrow=classic;startArrow=classic;html=1;rounded=0;" edge="1" parent="LiR2XcLl-FLcW5bncXfx-34">
          <mxGeometry width="50" height="50" relative="1" as="geometry">
            <mxPoint x="300" y="34.5" as="sourcePoint" />
            <mxPoint x="370" y="34.5" as="targetPoint" />
          </mxGeometry>
        </mxCell>
        <mxCell id="LiR2XcLl-FLcW5bncXfx-28" value="Feign" style="edgeLabel;html=1;align=center;verticalAlign=middle;resizable=0;points=[];" vertex="1" connectable="0" parent="LiR2XcLl-FLcW5bncXfx-27">
          <mxGeometry y="1" relative="1" as="geometry">
            <mxPoint as="offset" />
          </mxGeometry>
        </mxCell>
        <mxCell id="LiR2XcLl-FLcW5bncXfx-29" value="" style="endArrow=classic;startArrow=classic;html=1;rounded=0;" edge="1" parent="LiR2XcLl-FLcW5bncXfx-34">
          <mxGeometry width="50" height="50" relative="1" as="geometry">
            <mxPoint x="470" y="35" as="sourcePoint" />
            <mxPoint x="540" y="35" as="targetPoint" />
          </mxGeometry>
        </mxCell>
        <mxCell id="LiR2XcLl-FLcW5bncXfx-30" value="Feign" style="edgeLabel;html=1;align=center;verticalAlign=middle;resizable=0;points=[];" vertex="1" connectable="0" parent="LiR2XcLl-FLcW5bncXfx-29">
          <mxGeometry y="1" relative="1" as="geometry">
            <mxPoint as="offset" />
          </mxGeometry>
        </mxCell>
        <mxCell id="LiR2XcLl-FLcW5bncXfx-31" value="" style="endArrow=classic;startArrow=classic;html=1;rounded=0;" edge="1" parent="LiR2XcLl-FLcW5bncXfx-34">
          <mxGeometry width="50" height="50" relative="1" as="geometry">
            <mxPoint x="640" y="34" as="sourcePoint" />
            <mxPoint x="710" y="34" as="targetPoint" />
          </mxGeometry>
        </mxCell>
        <mxCell id="LiR2XcLl-FLcW5bncXfx-32" value="Feign" style="edgeLabel;html=1;align=center;verticalAlign=middle;resizable=0;points=[];" vertex="1" connectable="0" parent="LiR2XcLl-FLcW5bncXfx-31">
          <mxGeometry y="1" relative="1" as="geometry">
            <mxPoint as="offset" />
          </mxGeometry>
        </mxCell>
        <mxCell id="LiR2XcLl-FLcW5bncXfx-35" value="" style="group" vertex="1" connectable="0" parent="1">
          <mxGeometry x="200" y="60" width="560" height="70" as="geometry" />
        </mxCell>
        <mxCell id="LiR2XcLl-FLcW5bncXfx-7" value="" style="rounded=0;whiteSpace=wrap;html=1;" vertex="1" parent="LiR2XcLl-FLcW5bncXfx-35">
          <mxGeometry width="560" height="70" as="geometry" />
        </mxCell>
        <mxCell id="LiR2XcLl-FLcW5bncXfx-8" value="集团电商系统" style="ellipse;whiteSpace=wrap;html=1;" vertex="1" parent="LiR2XcLl-FLcW5bncXfx-35">
          <mxGeometry x="30" y="5" width="100" height="60" as="geometry" />
        </mxCell>
        <mxCell id="LiR2XcLl-FLcW5bncXfx-9" value="三方电商系统" style="ellipse;whiteSpace=wrap;html=1;" vertex="1" parent="LiR2XcLl-FLcW5bncXfx-35">
          <mxGeometry x="140" y="5" width="100" height="60" as="geometry" />
        </mxCell>
        <mxCell id="LiR2XcLl-FLcW5bncXfx-10" value="工厂 ERP 系统" style="ellipse;whiteSpace=wrap;html=1;" vertex="1" parent="LiR2XcLl-FLcW5bncXfx-35">
          <mxGeometry x="250" y="5" width="100" height="60" as="geometry" />
        </mxCell>
        <mxCell id="LiR2XcLl-FLcW5bncXfx-11" value="门店 POS" style="ellipse;whiteSpace=wrap;html=1;" vertex="1" parent="LiR2XcLl-FLcW5bncXfx-35">
          <mxGeometry x="360" y="5" width="100" height="60" as="geometry" />
        </mxCell>
        <mxCell id="LiR2XcLl-FLcW5bncXfx-12" value="外部系统" style="text;html=1;align=center;verticalAlign=middle;whiteSpace=wrap;rounded=0;" vertex="1" parent="LiR2XcLl-FLcW5bncXfx-35">
          <mxGeometry x="480" y="20" width="60" height="30" as="geometry" />
        </mxCell>
        <mxCell id="LiR2XcLl-FLcW5bncXfx-36" value="" style="shape=flexArrow;endArrow=classic;html=1;rounded=0;" edge="1" parent="1">
          <mxGeometry width="50" height="50" relative="1" as="geometry">
            <mxPoint x="480" y="140" as="sourcePoint" />
            <mxPoint x="480" y="200" as="targetPoint" />
          </mxGeometry>
        </mxCell>
        <mxCell id="LiR2XcLl-FLcW5bncXfx-37" value="" style="shape=flexArrow;endArrow=classic;html=1;rounded=0;" edge="1" parent="1">
          <mxGeometry width="50" height="50" relative="1" as="geometry">
            <mxPoint x="480" y="290" as="sourcePoint" />
            <mxPoint x="480" y="350" as="targetPoint" />
          </mxGeometry>
        </mxCell>
        <mxCell id="LiR2XcLl-FLcW5bncXfx-40" value="" style="shape=flexArrow;endArrow=classic;startArrow=classic;html=1;rounded=0;" edge="1" parent="1">
          <mxGeometry width="100" height="100" relative="1" as="geometry">
            <mxPoint x="480" y="440" as="sourcePoint" />
            <mxPoint x="480" y="530" as="targetPoint" />
          </mxGeometry>
        </mxCell>
      </root>
    </mxGraphModel>
  </diagram>
</mxfile>
